<svg xmlns="http://www.w3.org/2000/svg" width="189" height="45" fill="none" viewBox="0 0 63 15"><path fill="#fff" d="M34.3 3.324h3.756c.128 0 .232.044.312.132.08.088.12.204.12.348V12h-1.26c-.272 0-.452-.044-.54-.132-.08-.088-.12-.272-.12-.552V4.824h-1.92c-.232 0-.348-.192-.348-.576v-.924Zm4.668 0h1.92c.232 0 .348.192.348.576v.924h-2.268v-1.5Zm15.4734.36741c.3516.0625.6406.10547.8672.1289.2266.02344.4102.04297.5508.0586.164.01562.2929.01953.3867.01171h.8203c.1953-.00781.4375-.01171.7266-.01171.164.38281.3125.73437.4453 1.05468.1406.32032.2578.59375.3515.82032.1094.27343.211.51953.3047.73828.1094.27343.2266.57422.3516.90234.125.32813.2383.63672.3398.92578.1094.28907.1993.52735.2696.71485s.1054.27343.1054.25781c0-.00781.0039-.08594.0118-.23438.0078-.15625.0156-.34765.0234-.57421.0078-.23438.0156-.48829.0234-.76172.0157-.28125.0235-.55078.0235-.8086.0078-.26562.0117-.50781.0117-.72656s-.0078-.38281-.0235-.49219c-.0234-.13281-.0703-.28515-.1406-.45703-.0625-.14844-.1484-.32422-.2578-.52734-.1094-.21094-.2617-.44922-.457-.71485.3203.00782.582.01172.7851.01172h.4922c.1407 0 .25-.0039.3281-.01172.1016 0 .2266-.00781.375-.02343.1329-.01563.2969-.02735.4922-.03516.2032-.01563.4532-.03516.75-.05859-.1718.15625-.3086.30468-.4101.44531-.1016.14062-.1836.26562-.2461.375-.0703.125-.1172.24219-.1406.35156-.0313.14063-.0586.3711-.0821.69141-.0156.3125-.0351.66406-.0586 1.05469-.0156.39062-.0312.79687-.0468 1.21874-.0157.42188-.0313.8086-.0469 1.16016 0 .26563-.0078.55078-.0234.85542-.0157.2579-.0313.5508-.0469.879-.0157.3203-.0352.6445-.0586.9726l-1.043.0234c-.3047-.539-.5625-1-.7734-1.3828-.2031-.3906-.3711-.7109-.5039-.9609-.1485-.28906-.2735-.53125-.375-.72656-.086-.1875-.1992-.40235-.3399-.64453-.1172-.20313-.2656-.45313-.4453-.75-.1719-.29688-.3789-.63672-.6211-1.01953-.0234.53906-.0351 1-.0351 1.38281.0078.375.0195.6875.0351.9375.0235.28906.0508.53125.0821.72656.039.1875.0937.39844.164.63285.0625.2031.1367.4414.2227.7148.0937.2734.207.582.3398.9258-.4609-.0234-.8047-.0352-1.0312-.0352h-.3516c-.1094 0-.2578.0118-.4453.0352-.1563.0156-.3711.039-.6445.0703-.2657.0313-.5977.0742-.9961.1289.1875-.2266.3359-.4336.4453-.6211.1172-.1953.207-.3594.2695-.4922.0781-.1562.1328-.2929.1641-.4101.0234-.125.039-.3399.0468-.64456.0079-.3125.0079-.66406 0-1.05469 0-.39844-.0078-.81641-.0234-1.25391-.0078-.4375-.0195-.84375-.0351-1.21875-.0157-.375-.0352-.69531-.0586-.96093-.0157-.26563-.0274-.42969-.0352-.49219-.0234-.10156-.0703-.21094-.1406-.32813-.0625-.10156-.1446-.21484-.2461-.33984-.1016-.13281-.2422-.27734-.4219-.43359Z"/><path fill="#D8D8D8" stroke="#fff" d="M46.5 8c0 1.00685-.3067 1.89913-.7787 2.5284-.4718.6292-1.0855.9716-1.7213.9716-.6358 0-1.2495-.3424-1.7213-.9716C41.8067 9.89913 41.5 9.00685 41.5 8s.3067-1.89913.7787-2.52843C42.7505 4.84243 43.3642 4.5 44 4.5c.6358 0 1.2495.34243 1.7213.97157.472.6293.7787 1.52158.7787 2.52843Z"/><circle cx="43.1" cy="7.3" r="1" fill="#1E1E1E"/><path fill="#D8D8D8" stroke="#fff" d="M53.5 8c0 1.00685-.3067 1.89913-.7787 2.5284-.4718.6292-1.0855.9716-1.7213.9716-.6358 0-1.2495-.3424-1.7213-.9716C48.8067 9.89913 48.5 9.00685 48.5 8s.3067-1.89913.7787-2.52843C49.7505 4.84243 50.3642 4.5 51 4.5c.6358 0 1.2495.34243 1.7213.97157.472.6293.7787 1.52158.7787 2.52843Z"/><circle cx="50.1" cy="7.3" r="1" fill="#1E1E1E"/><path fill="#fff" d="M5.95312 5.02734c-.17968-.20312-.37109-.35546-.57421-.45703-.20313-.10156-.42188-.16015-.65625-.17578V3.23438c.875.03906 1.60937.34765 2.20312.92578l-.97266.86718ZM4.72266 10.8984c.23437-.0234.45312-.0859.65625-.1875.21093-.1015.40234-.25.57421-.4453l.97266.8555c-.29687.2891-.6289.5117-.99609.668-.36719.1562-.76953.2461-1.20703.2695v-1.1602ZM.925781 7.64062c0-.69531.082029-1.30859.246099-1.83984.17187-.53125.40624-.98047.70312-1.34766.29688-.36718.64453-.65234 1.04297-.85546.40625-.20313.84765-.32422 1.32422-.36328v1.17187c-.25781.03906-.5.12891-.72657.26953-.22656.13281-.42578.32813-.59765.58594-.17188.25781-.30859.58594-.41016.98437-.09375.39063-.14453.85547-.15234 1.39453.00781.54688.05859 1.01563.15234 1.40626.10157.39062.23828.71874.41016.98432.17187.2657.37109.4688.59765.6094.23438.1406.47657.2266.72657.2578v1.1485c-.47657-.0313-.91797-.1485-1.32422-.3516-.39844-.2031-.74609-.4883-1.04297-.8555-.29688-.3671-.53125-.8164-.70312-1.34761-.16407-.53907-.246099-1.15625-.246099-1.85157Z"/><rect width="1" height="5" fill="#fff" rx=".5" transform="matrix(-1 0 0 1 11.4 7)"/><path fill="#fff" d="M10.182 4.76777c.9763.97631 1.4512 2.08435 1.0606 2.47487-.3905.39053-1.49852-.08435-2.47483-1.06066-.97631-.97631-1.45118-2.08435-1.06066-2.47487.39052-.39053 1.49856.08435 2.47489 1.06066Z"/><path fill="#5CD376" d="M13.182 6.18197c-.9763.97631-2.0844 1.45118-2.4749 1.06066-.3905-.39052.0844-1.49856 1.0607-2.47487.9763-.97631 2.0843-1.45119 2.4748-1.06066.3906.39052-.0843 1.49856-1.0606 2.47487Z"/><path fill="#fff" d="M16.75 6.26367c.3906-.19922.7812-.29883 1.1719-.29883.3945 0 .7129.04493.9551.13477.2421.08594.4492.21289.621.38086.3594.35547.5391.86328.5391 1.52344 0 1.30468-.3418 2.31639-1.0254 3.03519-.6133.6406-1.3789.9609-2.2969.9609h-1.5937l.1113-.2695c.1172-.2852.1856-.5782.2051-.8789.0195-.3047.0332-.5821.041-.8321.0117-.25388.0215-.52731.0293-.82028.0195-.52734.0293-1.04492.0293-1.55274 0-.50781-.0019-.89257-.0059-1.15429-.0039-.26172-.0078-.51563-.0117-.76172-.0234-.92969-.0625-1.49414-.1172-1.69336-.0507-.20313-.1015-.35352-.1523-.45117-.0469-.10156-.1016-.19531-.1641-.28125l-.1992-.26953h2.1387c-.1445.51562-.2363 1.59179-.2754 3.22851Zm.0059 1.54102-.0176 2.15625c0 .75386.0195 1.28316.0586 1.58786.5351-.1172.9648-.4746 1.289-1.0722.3243-.58988.4864-1.31644.4864-2.17972 0-.53516-.0411-.91016-.1231-1.125-.0781-.21876-.1738-.37696-.2871-.47461-.1094-.09766-.2422-.14649-.3984-.14649-.1524 0-.2871.02734-.4043.08203-.1172.05469-.2207.13477-.3106.24024-.1953.23047-.2929.54101-.2929.93164Zm8.6191 2.20311c.1406.0938.2109.2578.2109.4922 0 .2305-.0312.4336-.0937.6094-.0625.1758-.1719.3398-.3281.4922-.3516.3437-.8868.5156-1.6055.5156-.8359 0-1.4727-.3086-1.9102-.9258-.3867-.5508-.58-1.29492-.58-2.23242 0-.94531.2617-1.6875.7851-2.22656.4961-.51172 1.168-.76758 2.0156-.76758.5899 0 1.0508.17188 1.3829.51563.2617.27344.3925.58984.3925.94922 0 .35547-.0703.67773-.2109.96679-.1367.28516-.3398.53125-.6094.73829-.5547.42968-1.3301.65625-2.3262.67968.0821.78515.3282 1.31055.7383 1.57615.1485.0938.3457.1406.5918.1406.2461 0 .5078-.1289.7852-.3867.2773-.2578.5312-.6367.7617-1.1367Zm-2.9121-.74999c1.2344-.08203 1.8516-.67969 1.8516-1.79297 0-.41796-.125-.69922-.375-.84375-.086-.04687-.1993-.07031-.3399-.07031-.1406 0-.2832.04297-.4277.12891-.1407.08593-.2637.22656-.3692.42187-.2265.42578-.3398 1.08399-.3398 1.97461v.18164ZM27.0156 12c.1797-.6172.2696-1.6777.2696-3.18164 0-1.07031-.086-1.80078-.2579-2.19141-.0703-.16015-.1953-.34179-.375-.54492h2.0801c-.0703.24609-.1269.58399-.1699 1.01367.3672-.46093.8789-.78711 1.5352-.97851.2812-.08203.4863-.21094.6152-.38672.1289.30859.1933.57422.1933.79687 0 .22266-.0117.42969-.0351.6211-.0234.1875-.0586.37109-.1055.55078-.1015.38672-.2363.6875-.4043.90234-.1445-.76172-.3691-1.20703-.6738-1.33594-.3516-.15234-.6953.05469-1.0313.6211-.0703.11719-.1289.24219-.1757.375-.0039.08984-.0059.18164-.0059.27539v.28125c0 1.50394.0899 2.56444.2695 3.18164h-1.7285Z"/></svg>